# xmcd CD database file
#
# Track frame offsets:
#	150
#	24641
#	39183
#	59420
#	72946
#	89143
#	112745
#	138041
#	162968
#	184662
#
# Disc length: 2943 seconds
#
# Revision: 0
# Processed by: cddbd v1.5.2PL0 Copyright (c) Steve Scherf et al.
# Submitted via: CDex 1.51
#
DISCID=7e0b7d0a
DTITLE=Montgomery,Winston - Mozart On The Road
DYEAR=2008
DGENRE=Country
TTITLE0=I Can´t Stick Around To Take The Fall (Redux)
TTITLE1=The Mountain, The Valley, The River And The Lake
TTITLE2=I Like Lunch
TTITLE3=Why Do Mothers Cry
TTITLE4=It´s So Nice To See
TTITLE5=Brave Little Billy Brewster
TTITLE6=You Can´t Take It With You (So You´d Better Have It Here)
TTITLE7=Momma´s Tattoo
TTITLE8=Sunset Girl
TTITLE9=Mozart On The Road
EXTD=YEAR: 2008
EXTT0=
EXTT1=
EXTT2=
EXTT3=
EXTT4=
EXTT5=
EXTT6=
EXTT7=
EXTT8=
EXTT9=
PLAYORDER=
